<svg xmlns="http://www.w3.org/2000/svg" width="1350" height="340" viewBox="0 0 1350 340">
  <g fill="none" fill-rule="evenodd">
    <path fill="#59504F" d="M94.4344397,18.4143223 L127.85442,18.4143223 L221.369044,235.703325 L177.217877,235.703325 L156.981926,185.984655 L62.8540914,185.984655 L43.2313506,235.703325 L0,235.703325 L94.4344397,18.4143223 Z M143.491291,152.838875 L110.071311,64.4501279 L76.0381203,152.838875 L143.491291,152.838875 Z M239.765363,88.3887468 L274.71837,88.3887468 L274.71837,112.02046 L275.331581,112.02046 C278.602054,104.654695 284.274196,98.1585959 292.348176,92.5319693 C300.422157,86.9053427 309.977927,84.0920716 321.015774,84.0920716 C330.622789,84.0920716 338.849949,85.7800343 345.697502,89.1560102 C352.545056,92.5319862 358.166097,96.9820696 362.560795,102.506394 C366.955494,108.030718 370.174817,114.373366 372.218863,121.534527 C374.262909,128.695688 375.284916,136.061343 375.284916,143.631714 L375.284916,235.703325 L338.492277,235.703325 L338.492277,154.066496 C338.492277,149.769799 338.185675,145.268566 337.572461,140.56266 C336.959248,135.856754 335.630638,131.611272 333.586592,127.826087 C331.542546,124.040902 328.732026,120.920728 325.154946,118.465473 C321.577866,116.010218 316.825531,114.782609 310.897798,114.782609 C304.970066,114.782609 299.860028,115.959068 295.567532,118.31202 C291.275036,120.664973 287.74911,123.682846 284.989648,127.365729 C282.230187,131.048612 280.135071,135.294094 278.704239,140.102302 C277.273407,144.91051 276.558002,149.769796 276.558002,154.680307 L276.558002,235.703325 L239.765363,235.703325 L239.765363,88.3887468 Z M422.808741,117.851662 L394.907657,117.851662 L394.907657,88.3887468 L422.808741,88.3887468 L422.808741,66.5984655 C422.808741,57.8004675 423.779649,49.3606542 425.721492,41.2787724 C427.663335,33.1968905 430.933759,26.0869872 435.532862,19.9488491 C440.131965,13.810711 446.21291,8.95142455 453.775879,5.37084399 C461.338848,1.79026343 470.843518,0 482.290174,0 C486.378266,0 489.801991,0.153451151 492.561453,0.460358056 C495.320914,0.767264962 498.131435,1.32991918 500.993099,2.1483376 L498.540256,33.4526854 C496.496211,32.8388716 494.298894,32.3273678 491.948242,31.9181586 C489.597589,31.5089494 487.093671,31.3043478 484.436411,31.3043478 C479.121893,31.3043478 474.829461,32.3273555 471.558988,34.3734015 C468.288515,36.4194476 465.784596,39.0792675 464.047157,42.3529412 C462.309719,45.6266148 461.13441,49.2071417 460.521196,53.0946292 C459.907982,56.9821166 459.60138,60.767245 459.60138,64.4501279 L459.60138,88.3887468 L493.634571,88.3887468 L493.634571,117.851662 L459.60138,117.851662 L459.60138,235.703325 L422.808741,235.703325 L422.808741,117.851662 Z M506.511995,161.432225 C506.511995,149.769763 508.60711,139.181633 512.797404,129.667519 C516.987698,120.153405 522.659839,112.020494 529.813999,105.268542 C536.968159,98.5165903 545.450822,93.2992512 555.262241,89.6163683 C565.073661,85.9334854 575.498137,84.0920716 586.535984,84.0920716 C597.573831,84.0920716 607.998308,85.9334854 617.809727,89.6163683 C627.621147,93.2992512 636.103809,98.5165903 643.257969,105.268542 C650.412129,112.020494 656.084271,120.153405 660.274565,129.667519 C664.464858,139.181633 666.559974,149.769763 666.559974,161.432225 C666.559974,173.094687 664.464858,183.733967 660.274565,193.350384 C656.084271,202.9668 650.412129,211.202012 643.257969,218.056266 C636.103809,224.91052 627.621147,230.28131 617.809727,234.168798 C607.998308,238.056285 597.573831,240 586.535984,240 C575.498137,240 565.073661,238.056285 555.262241,234.168798 C545.450822,230.28131 536.968159,224.91052 529.813999,218.056266 C522.659839,211.202012 516.987698,202.9668 512.797404,193.350384 C508.60711,183.733967 506.511995,173.094687 506.511995,161.432225 Z M543.917844,161.432225 C543.917844,167.161154 544.786551,172.889997 546.523989,178.618926 C548.261428,184.347855 550.867548,189.462893 554.342425,193.964194 C557.817303,198.465496 562.211935,202.148323 567.526454,205.012788 C572.840973,207.877252 579.17742,209.309463 586.535984,209.309463 C593.894549,209.309463 600.230995,207.877252 605.545514,205.012788 C610.860033,202.148323 615.254666,198.465496 618.729543,193.964194 C622.204421,189.462893 624.81054,184.347855 626.547979,178.618926 C628.285418,172.889997 629.154124,167.161154 629.154124,161.432225 C629.154124,155.703296 628.285418,150.025604 626.547979,144.398977 C624.81054,138.77235 622.204421,133.708462 618.729543,129.207161 C615.254666,124.70586 610.860033,121.074183 605.545514,118.31202 C600.230995,115.549858 593.894549,114.168798 586.535984,114.168798 C579.17742,114.168798 572.840973,115.549858 567.526454,118.31202 C562.211935,121.074183 557.817303,124.70586 554.342425,129.207161 C550.867548,133.708462 548.261428,138.77235 546.523989,144.398977 C544.786551,150.025604 543.917844,155.703296 543.917844,161.432225 Z M700.89977,88.3887468 L736.159382,88.3887468 L736.159382,112.941176 L736.772593,112.941176 C740.860684,104.347783 746.583926,97.3913309 753.942491,92.0716113 C761.301056,86.7518916 769.885919,84.0920716 779.697338,84.0920716 C781.12817,84.0920716 782.661181,84.143222 784.296418,84.2455243 C785.931655,84.3478266 787.362465,84.6035785 788.588893,85.0127877 L788.588893,118.772379 C786.136038,118.158565 784.040922,117.749362 782.303483,117.544757 C780.566045,117.340152 778.879732,117.237852 777.244496,117.237852 C768.863908,117.237852 762.118658,118.772363 757.008544,121.841432 C751.89843,124.910501 747.912601,128.593329 745.050937,132.890026 C742.189273,137.186722 740.247458,141.585655 739.225435,146.086957 C738.203413,150.588258 737.692409,154.168785 737.692409,156.828645 L737.692409,235.703325 L700.89977,235.703325 L700.89977,88.3887468 Z M898.660204,216.982097 L897.740388,216.982097 C894.061105,223.529445 888.133462,228.900235 879.957279,233.094629 C871.781096,237.289024 862.480828,239.386189 852.056195,239.386189 C846.128462,239.386189 839.945316,238.618934 833.506572,237.084399 C827.067828,235.549864 821.140185,232.992345 815.723464,229.411765 C810.306743,225.831184 805.809909,221.125349 802.232829,215.294118 C798.655749,209.462886 796.867236,202.250682 796.867236,193.657289 C796.867236,182.60864 799.984359,173.810774 806.218699,167.263427 C812.453038,160.71608 820.475797,155.703342 830.287217,152.225064 C840.098636,148.746786 850.983016,146.445018 862.940684,145.319693 C874.898351,144.194368 886.600337,143.631714 898.046993,143.631714 L898.046993,139.948849 C898.046993,130.741642 894.725469,123.938641 888.08232,119.539642 C881.439172,115.140643 873.518613,112.941176 864.320407,112.941176 C856.553034,112.941176 849.092379,114.577989 841.938219,117.851662 C834.784059,121.125336 828.856415,125.115066 824.15511,129.820972 L805.14558,107.41688 C813.526167,99.6419049 823.184139,93.8107611 834.119783,89.9232737 C845.055428,86.0357862 856.144209,84.0920716 867.386461,84.0920716 C880.468353,84.0920716 891.250533,85.9334854 899.733322,89.6163683 C908.216112,93.2992512 914.910261,98.1073872 919.815971,104.040921 C924.721681,109.974454 928.145406,116.624004 930.087249,123.98977 C932.029093,131.355536 933,138.721191 933,146.086957 L933,235.703325 L898.660204,235.703325 L898.660204,216.982097 Z M898.046993,168.491049 L889.768649,168.491049 C883.840917,168.491049 877.606671,168.746801 871.065725,169.258312 C864.524778,169.769824 858.494934,170.895132 852.976011,172.634271 C847.457087,174.37341 842.858053,176.828629 839.178771,180 C835.499489,183.171371 833.659875,187.519154 833.659875,193.043478 C833.659875,196.521757 834.426381,199.437328 835.959415,201.790281 C837.492449,204.143234 839.485364,206.035798 841.938219,207.468031 C844.391074,208.900263 847.150494,209.923271 850.216563,210.537084 C853.282631,211.150898 856.348654,211.457801 859.414722,211.457801 C872.087806,211.457801 881.694676,208.081875 888.235623,201.329923 C894.776569,194.577971 898.046993,185.370902 898.046993,173.70844 L898.046993,168.491049 Z" transform="translate(417 42)"/>
    <g fill-rule="nonzero">
      <polygon fill="#FFF" points="237 59 296 59 272.673 203.039"/>
      <polygon fill="#FF5230" points="277.186 187.073 277.186 67.296 233.591 67.296 224.647 42.722 302.788 42.722 302.788 257.412" transform="rotate(10 263.717 150.067)"/>
      <g transform="rotate(-10 242.085 17.624)">
        <rect width="240.745" height="300.89" x=".299" y=".611" fill="#FF5230"/>
        <rect width="190.59" height="190.564" x="25.377" y="24.682" fill="#FFF"/>
      </g>
      <path fill="#FF5230" d="M60.3349683,62.7474114 L138.623794,62.7474114 C144.634936,62.7474114 149.50793,67.6197335 149.50793,73.6300473 C149.50793,79.6403612 144.634936,84.5126833 138.623794,84.5126833 L116.508875,84.5126833 L116.508875,112.761518 C143.32192,128.314668 179.964723,157.519663 179.964723,190.983354 C179.964723,200.475031 178.312041,211.535717 175.326316,223.222172 L60.3349683,223.222172 L60.3349683,62.7474114 Z" transform="rotate(-10 120.15 142.985)"/>
    </g>
  </g>
</svg>
